<svg width="320" height="80" viewBox="0 0 320 80" fill="none" xmlns="http://www.w3.org/2000/svg">
<rect width="320" height="80" fill="#F3A98B"/>
<rect x="100" y="49.3406" width="32" height="2.58299" fill="#5A1E2A"/>
<rect x="100" y="44.429" width="32" height="2.91173" fill="#5A1E2A"/>
<rect x="114.691" y="47.3406" width="18.8406" height="2.47273" transform="rotate(-90 114.691 47.3406)" fill="#5A1E2A"/>
<rect width="17.4781" height="2.70116" transform="matrix(0.647307 -0.762229 0.647307 0.762229 114.691 45.2479)" fill="#5A1E2A"/>
<rect width="16.2059" height="2.88441" transform="matrix(0.953656 -0.300898 0.221878 0.975074 115.273 44.5094)" fill="#5A1E2A"/>
<rect width="16.2059" height="2.88441" transform="matrix(-0.953656 -0.300898 -0.221878 0.975074 116.677 44.5094)" fill="#5A1E2A"/>
<rect width="17.4781" height="2.70116" transform="matrix(0.647307 0.762229 0.647307 -0.762229 104.073 33.9845)" fill="#5A1E2A"/>
<path d="M150.533 39.8C150.533 38.976 150.717 38.24 151.085 37.592C151.461 36.936 151.969 36.428 152.609 36.068C153.257 35.7 153.981 35.516 154.781 35.516C155.717 35.516 156.537 35.756 157.241 36.236C157.945 36.716 158.437 37.38 158.717 38.228H156.785C156.593 37.828 156.321 37.528 155.969 37.328C155.625 37.128 155.225 37.028 154.769 37.028C154.281 37.028 153.845 37.144 153.461 37.376C153.085 37.6 152.789 37.92 152.573 38.336C152.365 38.752 152.261 39.24 152.261 39.8C152.261 40.352 152.365 40.84 152.573 41.264C152.789 41.68 153.085 42.004 153.461 42.236C153.845 42.46 154.281 42.572 154.769 42.572C155.225 42.572 155.625 42.472 155.969 42.272C156.321 42.064 156.593 41.76 156.785 41.36H158.717C158.437 42.216 157.945 42.884 157.241 43.364C156.545 43.836 155.725 44.072 154.781 44.072C153.981 44.072 153.257 43.892 152.609 43.532C151.969 43.164 151.461 42.656 151.085 42.008C150.717 41.36 150.533 40.624 150.533 39.8ZM166.428 37.352V44H164.736V43.16C164.52 43.448 164.236 43.676 163.884 43.844C163.54 44.004 163.164 44.084 162.756 44.084C162.236 44.084 161.776 43.976 161.376 43.76C160.976 43.536 160.66 43.212 160.428 42.788C160.204 42.356 160.092 41.844 160.092 41.252V37.352H161.772V41.012C161.772 41.54 161.904 41.948 162.168 42.236C162.432 42.516 162.792 42.656 163.248 42.656C163.712 42.656 164.076 42.516 164.34 42.236C164.604 41.948 164.736 41.54 164.736 41.012V37.352H166.428ZM169.766 35.12V44H168.086V35.12H169.766ZM173.382 38.732V41.948C173.382 42.172 173.434 42.336 173.538 42.44C173.65 42.536 173.834 42.584 174.09 42.584H174.87V44H173.814C172.398 44 171.69 43.312 171.69 41.936V38.732H170.898V37.352H171.69V35.708H173.382V37.352H174.87V38.732H173.382ZM182.354 37.352V44H180.662V43.16C180.446 43.448 180.162 43.676 179.81 43.844C179.466 44.004 179.09 44.084 178.682 44.084C178.162 44.084 177.702 43.976 177.302 43.76C176.902 43.536 176.586 43.212 176.354 42.788C176.13 42.356 176.018 41.844 176.018 41.252V37.352H177.698V41.012C177.698 41.54 177.83 41.948 178.094 42.236C178.358 42.516 178.718 42.656 179.174 42.656C179.638 42.656 180.002 42.516 180.266 42.236C180.53 41.948 180.662 41.54 180.662 41.012V37.352H182.354ZM185.692 38.384C185.908 38.032 186.188 37.756 186.532 37.556C186.884 37.356 187.284 37.256 187.732 37.256V39.02H187.288C186.76 39.02 186.36 39.144 186.088 39.392C185.824 39.64 185.692 40.072 185.692 40.688V44H184.012V37.352H185.692V38.384ZM188.431 40.652C188.431 39.98 188.563 39.384 188.827 38.864C189.099 38.344 189.463 37.944 189.919 37.664C190.383 37.384 190.899 37.244 191.467 37.244C191.963 37.244 192.395 37.344 192.763 37.544C193.139 37.744 193.439 37.996 193.663 38.3V37.352H195.355V44H193.663V43.028C193.447 43.34 193.147 43.6 192.763 43.808C192.387 44.008 191.951 44.108 191.455 44.108C190.895 44.108 190.383 43.964 189.919 43.676C189.463 43.388 189.099 42.984 188.827 42.464C188.563 41.936 188.431 41.332 188.431 40.652ZM193.663 40.676C193.663 40.268 193.583 39.92 193.423 39.632C193.263 39.336 193.047 39.112 192.775 38.96C192.503 38.8 192.211 38.72 191.899 38.72C191.587 38.72 191.299 38.796 191.035 38.948C190.771 39.1 190.555 39.324 190.387 39.62C190.227 39.908 190.147 40.252 190.147 40.652C190.147 41.052 190.227 41.404 190.387 41.708C190.555 42.004 190.771 42.232 191.035 42.392C191.307 42.552 191.595 42.632 191.899 42.632C192.211 42.632 192.503 42.556 192.775 42.404C193.047 42.244 193.263 42.02 193.423 41.732C193.583 41.436 193.663 41.084 193.663 40.676ZM200.68 37.256C201.472 37.256 202.112 37.508 202.6 38.012C203.088 38.508 203.332 39.204 203.332 40.1V44H201.652V40.328C201.652 39.8 201.52 39.396 201.256 39.116C200.992 38.828 200.632 38.684 200.176 38.684C199.712 38.684 199.344 38.828 199.072 39.116C198.808 39.396 198.676 39.8 198.676 40.328V44H196.996V37.352H198.676V38.18C198.9 37.892 199.184 37.668 199.528 37.508C199.88 37.34 200.264 37.256 200.68 37.256ZM204.498 40.652C204.498 39.98 204.63 39.384 204.894 38.864C205.166 38.344 205.534 37.944 205.998 37.664C206.462 37.384 206.978 37.244 207.546 37.244C207.978 37.244 208.39 37.34 208.782 37.532C209.174 37.716 209.486 37.964 209.718 38.276V35.12H211.422V44H209.718V43.016C209.51 43.344 209.218 43.608 208.842 43.808C208.466 44.008 208.03 44.108 207.534 44.108C206.974 44.108 206.462 43.964 205.998 43.676C205.534 43.388 205.166 42.984 204.894 42.464C204.63 41.936 204.498 41.332 204.498 40.652ZM209.73 40.676C209.73 40.268 209.65 39.92 209.49 39.632C209.33 39.336 209.114 39.112 208.842 38.96C208.57 38.8 208.278 38.72 207.966 38.72C207.654 38.72 207.366 38.796 207.102 38.948C206.838 39.1 206.622 39.324 206.454 39.62C206.294 39.908 206.214 40.252 206.214 40.652C206.214 41.052 206.294 41.404 206.454 41.708C206.622 42.004 206.838 42.232 207.102 42.392C207.374 42.552 207.662 42.632 207.966 42.632C208.278 42.632 208.57 42.556 208.842 42.404C209.114 42.244 209.33 42.02 209.49 41.732C209.65 41.436 209.73 41.084 209.73 40.676ZM216.014 44.108C215.374 44.108 214.798 43.968 214.286 43.688C213.774 43.4 213.37 42.996 213.074 42.476C212.786 41.956 212.642 41.356 212.642 40.676C212.642 39.996 212.79 39.396 213.086 38.876C213.39 38.356 213.802 37.956 214.322 37.676C214.842 37.388 215.422 37.244 216.062 37.244C216.702 37.244 217.282 37.388 217.802 37.676C218.322 37.956 218.73 38.356 219.026 38.876C219.33 39.396 219.482 39.996 219.482 40.676C219.482 41.356 219.326 41.956 219.014 42.476C218.71 42.996 218.294 43.4 217.766 43.688C217.246 43.968 216.662 44.108 216.014 44.108ZM216.014 42.644C216.318 42.644 216.602 42.572 216.866 42.428C217.138 42.276 217.354 42.052 217.514 41.756C217.674 41.46 217.754 41.1 217.754 40.676C217.754 40.044 217.586 39.56 217.25 39.224C216.922 38.88 216.518 38.708 216.038 38.708C215.558 38.708 215.154 38.88 214.826 39.224C214.506 39.56 214.346 40.044 214.346 40.676C214.346 41.308 214.502 41.796 214.814 42.14C215.134 42.476 215.534 42.644 216.014 42.644Z" fill="#5A1E2A"/>
</svg>
